<?xml version="1.0" encoding="UTF-8" standalone="no"?>
<!-- Created with Inkscape (http://www.inkscape.org/) -->

<svg
   width="158.4192mm"
   height="166.18507mm"
   viewBox="0 0 158.4192 166.18507"
   version="1.1"
   id="svg1"
   xml:space="preserve"
   xmlns="http://www.w3.org/2000/svg"
   xmlns:svg="http://www.w3.org/2000/svg"><defs
     id="defs1" /><g
     id="layer1"
     transform="translate(-31.988606,-42.741416)"><path
       style="fill:#000000"
       d="m 177.38524,208.77089 c -0.19181,-0.10529 -0.76546,-0.25072 -1.27479,-0.32317 -0.50932,-0.0725 -1.10463,-0.19831 -1.32291,-0.27967 -0.21828,-0.0814 -0.8136,-0.22015 -1.32292,-0.30842 -1.48556,-0.25744 -1.86928,-0.34071 -3.43958,-0.74647 -0.61479,-0.15885 -1.4933,-0.34117 -2.77813,-0.57657 -0.29104,-0.0533 -0.938,-0.22119 -1.43768,-0.37304 -0.49969,-0.15185 -0.96183,-0.22278 -1.02698,-0.15763 -0.0651,0.0651 -0.32798,0.006 -0.58407,-0.13073 -0.25609,-0.13706 -0.86551,-0.30788 -1.35428,-0.37961 -0.48876,-0.0717 -1.36491,-0.24724 -1.94699,-0.39002 -0.58208,-0.14277 -1.08863,-0.26328 -1.12567,-0.2678 -0.037,-0.005 -0.33469,-0.0686 -0.66146,-0.14248 -0.32676,-0.0738 -0.89177,-0.19013 -1.25558,-0.25839 -0.3638,-0.0683 -1.37583,-0.29752 -2.24896,-0.50946 -0.87312,-0.21194 -2.00421,-0.46204 -2.51354,-0.55577 -1.80473,-0.33213 -1.99382,-0.37447 -2.89289,-0.64769 -0.49968,-0.15185 -0.96182,-0.22279 -1.02698,-0.15764 -0.0651,0.0652 -0.32798,0.006 -0.58407,-0.13073 -0.25609,-0.13705 -0.86551,-0.30113 -1.35427,-0.36461 -0.48876,-0.0635 -1.06726,-0.17965 -1.28554,-0.25815 -0.21828,-0.0785 -0.75406,-0.20314 -1.19062,-0.27697 -0.43656,-0.0738 -1.27,-0.25223 -1.85209,-0.39644 -0.58208,-0.14422 -1.11786,-0.27324 -1.19062,-0.28672 -0.0728,-0.0135 -0.37042,-0.0776 -0.66146,-0.14248 -0.29104,-0.0649 -0.88635,-0.18744 -1.32292,-0.27233 -1.95369,-0.37993 -1.86146,-0.35948 -3.30729,-0.73307 -0.61478,-0.15885 -1.49329,-0.34118 -2.77812,-0.57657 -0.29104,-0.0533 -0.938,-0.22119 -1.43769,-0.37304 -0.49968,-0.15185 -0.96182,-0.22279 -1.02697,-0.15764 -0.0652,0.0652 -0.32799,0.006 -0.58407,-0.13073 -0.25609,-0.13705 -0.86552,-0.30788 -1.35428,-0.37961 -0.48876,-0.0717 -1.36491,-0.24723 -1.94699,-0.39001 -0.58209,-0.14278 -1.08864,-0.26329 -1.12567,-0.2678 -0.037,-0.005 -0.33469,-0.0686 -0.66146,-0.14248 -0.32677,-0.0739 -0.89178,-0.19013 -1.25558,-0.25839 -0.3638,-0.0683 -1.37583,-0.29752 -2.24896,-0.50946 -0.87312,-0.21194 -2.00422,-0.46204 -2.51354,-0.55577 -1.80473,-0.33214 -1.99383,-0.37447 -2.89289,-0.64769 -0.49969,-0.15186 -0.96183,-0.22279 -1.02698,-0.15764 -0.0652,0.0652 -0.32798,0.006 -0.58407,-0.13073 -0.25609,-0.13706 -0.86551,-0.30788 -1.35428,-0.37961 -0.48876,-0.0717 -1.30537,-0.23381 -1.8147,-0.36018 -0.50932,-0.12636 -1.0451,-0.25421 -1.19062,-0.2841 -0.14552,-0.0299 -0.50271,-0.10743 -0.79375,-0.17232 -0.29104,-0.0649 -0.82682,-0.17501 -1.19063,-0.24471 -0.3638,-0.0697 -1.19724,-0.25792 -1.85208,-0.41824 -0.65484,-0.16032 -1.48828,-0.3395 -1.85208,-0.39816 -0.6678,-0.10768 -0.91561,-0.16311 -2.11667,-0.47345 -0.61478,-0.15885 -1.49329,-0.34118 -2.77812,-0.57657 -0.291046,-0.0533 -0.938004,-0.22119 -1.437689,-0.37304 -0.499684,-0.15186 -0.961823,-0.22279 -1.026975,-0.15764 -0.06515,0.0652 -0.327985,0.006 -0.584073,-0.13073 -0.256088,-0.13706 -0.865511,-0.30788 -1.354274,-0.37961 -0.488763,-0.0717 -1.305378,-0.23381 -1.814701,-0.36018 -0.509323,-0.12636 -1.015874,-0.24687 -1.12567,-0.2678 -0.109795,-0.0209 -0.466982,-0.0985 -0.79375,-0.17232 -0.326767,-0.0739 -0.891778,-0.19124 -1.25558,-0.26085 -0.363802,-0.0696 -1.078177,-0.2302 -1.5875,-0.35685 -0.509323,-0.12665 -1.015874,-0.24739 -1.12567,-0.26831 -0.109795,-0.0209 -0.466982,-0.0985 -0.79375,-0.17232 -0.593809,-0.13421 -1.713211,-0.35717 -2.710789,-0.53994 -0.291041,-0.0533 -0.937999,-0.22119 -1.437684,-0.37304 -0.499685,-0.15185 -0.961824,-0.22278 -1.026976,-0.15763 -0.06515,0.0651 -0.327984,0.006 -0.584072,-0.13073 -0.256089,-0.13706 -0.865512,-0.30788 -1.354275,-0.37961 -0.488763,-0.0717 -1.364909,-0.24724 -1.946993,-0.39002 -0.582083,-0.14277 -1.088634,-0.26328 -1.125669,-0.2678 -0.03704,-0.005 -0.334691,-0.0686 -0.661458,-0.14248 -0.326768,-0.0738 -0.891779,-0.19023 -1.255581,-0.25862 -0.363802,-0.0684 -1.374851,-0.29881 -2.246776,-0.51205 -0.871925,-0.21325 -1.63172,-0.34132 -1.688434,-0.2846 -0.05671,0.0567 -0.312643,-0.009 -0.568731,-0.14607 -0.256088,-0.13706 -0.865512,-0.30482 -1.354274,-0.3728 -0.488763,-0.068 -1.297493,-0.24728 -1.797178,-0.39844 -0.499685,-0.15115 -0.961824,-0.22152 -1.026976,-0.15637 -0.06515,0.0652 -0.327984,0.006 -0.584072,-0.13073 -0.256088,-0.13705 -0.865512,-0.30788 -1.354274,-0.37961 -0.488763,-0.0717 -1.36491,-0.24723 -1.946993,-0.39001 -0.582084,-0.14278 -1.088635,-0.26329 -1.12567,-0.2678 -0.03703,-0.005 -0.334691,-0.0686 -0.661458,-0.14248 -0.326767,-0.0739 -0.891779,-0.19124 -1.255581,-0.26086 -0.363802,-0.0696 -1.078177,-0.2302 -1.5875,-0.35685 -0.509323,-0.12665 -1.015874,-0.24738 -1.125669,-0.26831 -0.109795,-0.0209 -0.466983,-0.0985 -0.79375,-0.17232 -0.570014,-0.12883 -1.586067,-0.33187 -2.710789,-0.54171 -0.291042,-0.0543 -0.826823,-0.17407 -1.190625,-0.26615 -0.363802,-0.0921 -0.899583,-0.21342 -1.190625,-0.26963 -0.291042,-0.0562 -0.975651,-0.21287 -1.521354,-0.34813 -0.545703,-0.13527 -0.992188,-0.19475 -0.992188,-0.1322 0,0.0626 -0.225181,-0.007 -0.500403,-0.15407 -0.275221,-0.14729 -0.900299,-0.3265 -1.389062,-0.39823 -0.488763,-0.0717 -1.36491,-0.24723 -1.946993,-0.39001 -0.582083,-0.14278 -1.088635,-0.26329 -1.125669,-0.2678 -0.03704,-0.005 -0.334691,-0.0686 -0.661459,-0.14248 -0.326767,-0.0739 -0.891778,-0.19131 -1.25558,-0.26102 -0.363802,-0.0697 -1.19724,-0.25791 -1.852084,-0.41824 -0.654843,-0.16032 -1.488281,-0.33613 -1.852083,-0.39068 -0.363802,-0.0546 -1.061814,-0.22031 -1.551137,-0.36834 -0.489324,-0.14804 -1.025105,-0.24386 -1.190625,-0.21294 -0.165521,0.0309 -0.274502,-0.0826 -0.242182,-0.25236 0.05169,-0.27147 0.299094,-11.15268 0.327476,-14.40318 l 0.01063,-1.21802 1.653645,0.0771 c 0.909506,0.0424 2.844271,0.14748 4.29948,0.23349 2.897219,0.17124 5.790308,0.33261 9.657291,0.53866 1.382448,0.0737 3.466042,0.19245 4.630209,0.26397 1.164166,0.0715 3.128698,0.18721 4.365625,0.25707 1.236927,0.0699 3.439583,0.19564 4.894791,0.27952 4.021667,0.23181 6.307844,0.35862 6.746875,0.37425 l 0.396875,0.0141 -0.09257,1.64599 -0.09257,1.64599 -0.436596,0.53731 -0.436596,0.5373 h -1.058333 -1.058334 l 0.03216,0.66146 c 0.215519,4.43308 0.687776,5.07302 2.652468,3.59425 2.580621,-1.94236 2.932354,-2.34024 3.411276,-3.85883 0.252413,-0.80037 0.666202,-1.87193 0.919533,-2.38125 l 0.460601,-0.92605 -0.223498,-0.59459 -0.223497,-0.5946 2.438605,0.12645 c 1.341232,0.0696 3.926886,0.19703 5.745896,0.28328 l 3.307292,0.15682 0.103771,0.29191 c 0.05707,0.16055 0.56309,0.79021 1.124479,1.39924 l 1.020708,1.10734 v 0.87148 0.87148 l -0.693081,0.90867 -0.693081,0.90868 0.290534,0.63765 c 0.159793,0.35071 0.382383,0.64676 0.494643,0.6579 0.112261,0.0111 0.382704,0.0637 0.600985,0.11682 0.218281,0.0531 0.694531,0.16918 1.058333,0.2579 0.363802,0.0887 0.931278,0.21743 1.261057,0.28601 l 0.599598,0.12468 0.277851,-0.73081 c 0.152818,-0.40194 0.198289,-1.14876 0.101046,-1.65959 -0.09724,-0.51084 -0.225443,-1.22646 -0.28489,-1.59026 -0.05945,-0.3638 -0.184997,-0.95911 -0.279,-1.32291 -0.268947,-1.04087 -0.34557,-1.40793 -0.442793,-2.12121 l -0.09078,-0.666 1.347183,0.0506 c 0.740951,0.0279 2.478277,0.11688 3.860725,0.19786 7.066741,0.41393 9.213261,0.52882 10.108111,0.54101 l 0.97998,0.0133 -0.79623,0.8215 c -0.67917,0.70073 -5.73098,4.05202 -8.317201,5.51751 l -0.803466,0.45529 -1.018219,2.61273 -1.01822,2.61273 -1.256052,0.4172 c -1.514376,0.50299 -2.113114,1.10348 -1.97983,1.98561 0.363558,2.4062 0.39559,2.5757 0.811971,4.2967 0.02641,0.10914 0.06289,0.32578 0.08108,0.48143 0.157813,1.35031 2.343964,-0.96924 4.204645,-4.46121 l 1.086729,-2.03949 3.390123,-3.18158 c 4.78982,-4.49519 6.30931,-5.75743 8.39789,-6.97612 l 1.83277,-1.06943 1.34223,0.97513 1.34222,0.97512 2.77813,0.007 c 1.52797,0.004 4.50453,-0.0352 6.61458,-0.0871 l 3.83646,-0.0944 0.94426,-0.90376 0.94425,-0.90375 0.77554,-0.0291 c 0.42654,-0.016 1.96616,0.0453 3.42137,0.13616 1.45521,0.0909 3.65786,0.22907 4.89479,0.30706 1.23693,0.078 3.38005,0.20186 4.7625,0.27526 1.38245,0.0734 3.46604,0.18659 4.63021,0.25152 1.16416,0.0649 3.24776,0.17971 4.63021,0.25508 1.38244,0.0754 3.5851,0.20065 4.89479,0.2784 2.71436,0.16115 5.50031,0.31808 9.12812,0.51418 1.38245,0.0747 3.46604,0.19532 4.63021,0.26799 3.11408,0.19437 8.622,0.4954 9.45569,0.51678 l 0.72444,0.0186 -0.1412,0.4449 c -0.0777,0.24469 -0.19077,1.07813 -0.25135,1.85208 -0.0606,0.77396 -0.17883,2.24063 -0.26279,3.25927 -0.20462,2.4826 -0.37659,4.64446 -0.54721,6.87917 -0.0778,1.01865 -0.19151,2.4474 -0.25275,3.175 -0.0612,0.72761 -0.17125,2.03729 -0.24447,2.91042 -0.0732,0.87312 -0.19102,2.24234 -0.26178,3.04271 -0.23939,2.70805 -0.43986,5.15262 -0.55328,6.74687 -0.10896,1.53161 -0.1985,2.64841 -0.53033,6.61459 -0.0852,1.01864 -0.19626,2.37936 -0.24675,3.02382 l -0.0918,1.17175 -0.53593,0.0395 c -0.29475,0.0217 -0.69286,-0.0467 -0.88467,-0.15195 z m 0.7397,-42.77373 c -0.0357,-0.0338 -1.72389,-0.12731 -3.75164,-0.2078 -2.02774,-0.0805 -4.93696,-0.19935 -6.46493,-0.26412 -7.04483,-0.29866 -9.33817,-0.39715 -12.17083,-0.52268 -1.67349,-0.0742 -4.53099,-0.19357 -6.35,-0.26535 -1.81901,-0.0718 -4.67651,-0.19461 -6.35,-0.27295 -4.27078,-0.19994 -8.623,-0.36016 -10.22175,-0.3763 l -1.3582,-0.0137 -0.18842,-0.59531 c -0.10363,-0.32742 -0.23531,-3.52109 -0.29263,-7.09704 l -0.1042,-6.50172 0.33345,-0.45602 c 0.1834,-0.25082 0.77521,-0.51082 1.31513,-0.57778 1.09266,-0.13553 3.00406,-0.84302 4.89952,-1.81352 l 1.25147,-0.64078 2.00607,-2.20527 2.00607,-2.20527 1.36048,-2.64583 c 0.74827,-1.45521 2.26811,-3.83646 3.37742,-5.29167 1.10932,-1.4552 3.74646,-4.96755 5.86032,-7.8052 2.11386,-2.83766 3.92482,-5.24953 4.02435,-5.35972 0.0995,-0.11018 1.84103,-0.25995 3.87,-0.33281 4.81655,-0.17296 8.72392,-0.46146 10.7005,-0.79006 0.50932,-0.0847 1.32181,-0.19751 1.80552,-0.25076 0.48372,-0.0532 0.9272,-0.14452 0.98552,-0.20283 0.0583,-0.0583 0.82341,0.55986 1.70021,1.37373 l 1.59417,1.47978 v 0.92499 0.925 l 0.81303,0.30688 c 0.44717,0.16879 0.95319,0.25796 1.12448,0.19815 0.17129,-0.0598 0.66863,-0.24963 1.10519,-0.42183 1.20032,-0.47345 1.50364,-0.53333 2.55508,-0.50443 l 0.96757,0.0266 0.55016,-0.77262 c 0.30258,-0.42494 0.78863,-1.32897 1.0801,-2.00894 l 0.52995,-1.23632 -0.35642,-0.8446 c -0.19603,-0.46452 -1.15548,-1.79709 -2.13212,-2.96126 -2.24423,-2.67517 -4.1581,-5.75545 -5.25197,-8.45281 l -0.85276,-2.1028 -2.71198,-2.84514 c -1.49159,-1.56483 -2.71198,-3.01749 -2.71198,-3.22814 0,-2.78215 -4.7206,-7.88362 -5.51847,-5.96372 l -0.56195,1.35219 -0.46552,-0.19095 c -0.25603,-0.10502 -0.63715,-0.20749 -0.84691,-0.22771 l -0.3814,-0.0367 -0.3746,1.32292 c -0.44216,1.56146 -0.77479,1.97769 -2.42871,3.039 -1.37148,0.88008 -1.66227,0.92495 -4.44292,0.68559 l -1.9236,-0.16559 -0.58994,0.30555 c -0.32446,0.16805 -1.73289,1.12183 -3.12983,2.11952 -2.47833,1.77001 -4.96085,3.09928 -6.13642,3.28577 -0.99433,0.15773 -1.3652,0.26213 -1.72143,0.48459 l -0.34358,0.21455 0.26085,0.3143 0.26085,0.3143 -1.0538,1.38194 -1.05379,1.38193 h -0.58669 -0.58669 l -3.79181,-3.79858 -3.79181,-3.79859 0.48794,-0.20991 c 0.26836,-0.11545 0.72606,-0.25294 1.0171,-0.30554 0.29105,-0.0526 0.70777,-0.17165 0.92605,-0.26458 0.21828,-0.0929 0.6118,-0.21086 0.87448,-0.26207 0.26269,-0.0512 3.35831,-0.92974 6.87917,-1.95229 3.52085,-1.02254 6.69921,-1.9187 7.06301,-1.99145 0.36381,-0.0728 0.84006,-0.20626 1.05834,-0.29668 0.21828,-0.0904 0.635,-0.20742 0.92604,-0.26001 0.29104,-0.0526 0.70776,-0.17165 0.92604,-0.26458 0.21828,-0.0929 0.635,-0.21199 0.92604,-0.26459 0.29104,-0.0526 0.70776,-0.17165 0.92604,-0.26458 0.21828,-0.0929 0.61649,-0.21158 0.88491,-0.26366 0.26842,-0.0521 2.53061,-0.69243 5.02708,-1.42299 2.49648,-0.73056 4.74043,-1.37625 4.98655,-1.43487 1.0372,-0.24703 4.61102,-1.24424 4.97646,-1.38859 0.21828,-0.0862 0.635,-0.1998 0.92604,-0.25239 0.29105,-0.0526 0.70777,-0.17165 0.92605,-0.26458 0.21828,-0.0929 0.635,-0.21199 0.92604,-0.26459 0.29104,-0.0526 0.70776,-0.17165 0.92604,-0.26458 0.21828,-0.0929 0.62685,-0.21316 0.90793,-0.26717 0.28108,-0.054 1.70983,-0.45739 3.175,-0.89639 1.46517,-0.43899 2.95326,-0.85937 3.30686,-0.93418 0.35361,-0.0748 0.74011,-0.19607 0.8589,-0.26949 0.1188,-0.0734 0.44757,-0.17808 0.73062,-0.23259 0.71834,-0.13834 4.5619,-1.19085 5.04361,-1.38112 0.21828,-0.0862 0.60745,-0.19801 0.86482,-0.2484 l 0.46794,-0.0916 -0.14298,1.91732 c -0.0786,1.05453 -0.19743,2.57217 -0.26398,3.37253 -0.16612,1.99788 -0.41392,5.15552 -0.52948,6.74688 -0.0528,0.7276 -0.16992,2.21588 -0.2602,3.30729 -0.0903,1.0914 -0.21439,2.63922 -0.27579,3.43958 -0.0614,0.80037 -0.17623,2.22912 -0.25515,3.175 -0.1953,2.34072 -0.41686,5.1522 -0.53169,6.74688 -0.0524,0.7276 -0.16909,2.15635 -0.25932,3.175 -0.0902,1.01864 -0.21478,2.56645 -0.27676,3.43958 -0.062,0.87312 -0.17704,2.36141 -0.25567,3.30729 -0.0786,0.94589 -0.20317,2.4937 -0.27675,3.43959 -0.0736,0.94588 -0.18386,2.3151 -0.24508,3.0427 -0.21498,2.55523 -0.43301,5.30714 -0.54501,6.87917 -0.0622,0.87313 -0.17744,2.36141 -0.25608,3.30729 -0.0786,0.94589 -0.20317,2.4937 -0.27674,3.43959 -0.0736,0.94588 -0.18387,2.3151 -0.24509,3.0427 -0.21498,2.55523 -0.43301,5.30714 -0.54501,6.87917 -0.0622,0.87313 -0.17744,2.36141 -0.25607,3.30729 -0.0786,0.94589 -0.20761,2.55323 -0.2866,3.57188 -0.079,1.01864 -0.19071,2.38786 -0.24825,3.04271 -0.0575,0.65484 -0.1099,1.51695 -0.11638,1.9158 l -0.0118,0.72517 -2.92909,-0.0637 c -1.61099,-0.035 -2.95826,-0.0914 -2.99392,-0.12517 z m -58.37074,-2.52391 c -1.23692,-0.11226 -2.6503,-0.14718 -3.14084,-0.0776 l -0.89188,0.12653 1.1631,-1.11304 c 7.56301,-7.23747 8.49432,-7.17826 10.37457,0.65955 l 0.17135,0.71425 -2.71367,-0.0528 c -1.49252,-0.029 -3.7257,-0.14464 -4.96263,-0.25691 z m -10.36072,-0.32292 c -0.0716,-0.0716 -1.60948,-0.18797 -3.41753,-0.25862 -1.80805,-0.0707 -5.2519,-0.21557 -7.652996,-0.32203 -2.401093,-0.10646 -4.960937,-0.19844 -5.688541,-0.2044 l -1.322917,-0.0108 -0.429762,-0.67931 c -0.23637,-0.37362 -1.724651,-1.55539 -3.307292,-2.62615 -1.582641,-1.07077 -4.216982,-2.93726 -5.854092,-4.14777 l -2.976562,-2.20092 v -0.77656 -0.77655 l 1.389062,-1.35381 1.389063,-1.35382 2.910416,-1.47592 c 4.595985,-2.33071 7.219679,-4.16679 7.369633,-5.15734 0.02947,-0.19466 0.127546,-0.473 0.217949,-0.61852 0.0904,-0.14552 0.159113,-0.97895 0.152691,-1.85208 -0.0064,-0.87312 0.06634,-1.56015 0.161693,-1.52671 0.09535,0.0334 0.514853,0.23737 0.932221,0.4532 1.14776,0.59353 4.262688,1.73234 4.262688,1.55842 0,-0.084 0.178594,-0.005 0.396875,0.17655 0.218282,0.18116 0.396875,0.24069 0.396875,0.13229 0,-0.1084 0.148828,-0.0771 0.330729,0.0695 0.333599,0.26894 6.648167,2.38052 7.529017,2.51769 0.26104,0.0406 0.59369,0.14576 0.73921,0.23358 0.14552,0.0878 0.6813,0.25625 1.19063,0.37428 1.13057,0.26202 1.09943,0.25317 1.5875,0.45135 0.48464,0.19679 3.84967,1.16583 4.7625,1.37147 0.3638,0.082 2.3581,0.59324 4.43177,1.13619 l 3.77031,0.98718 -0.0113,0.66269 c -0.007,0.38951 -0.45105,1.15353 -1.07804,1.85332 -0.58672,0.65485 -2.55604,2.94597 -4.37628,5.09139 -1.82023,2.14542 -3.85593,4.36783 -4.52378,4.93869 l -1.21426,1.03792 -0.44125,-0.57306 c -0.53035,-0.68878 -1.07081,-2.18896 -0.86334,-2.39643 0.63417,-0.63417 -1.05926,-0.26139 -2.809,0.61836 -2.86074,1.43835 -2.77687,1.88219 0.68239,3.61127 1.90292,0.95116 1.78393,0.87555 1.62616,1.03332 -0.0728,0.0728 -0.19087,0.0737 -0.26246,0.002 z m -24.871457,-1.05896 c -0.07194,-0.0719 -2.086077,-0.19474 -4.475868,-0.27289 -2.389792,-0.0781 -4.642732,-0.20301 -5.006534,-0.27746 l -0.661458,-0.13538 -1.852084,-3.20739 c -1.018646,-1.76406 -2.571455,-4.30485 -3.450688,-5.64619 l -1.598605,-2.4388 1.466313,-0.47075 c 2.858412,-0.91769 2.952099,-0.87258 1.863189,0.89712 l -0.79375,1.29001 v 0.97495 0.97496 l 0.625928,0.62592 c 0.942781,0.94278 6.253238,3.39471 6.253238,2.88723 0,-0.0893 0.196893,9.9e-4 0.43754,0.20071 0.240647,0.19972 0.508538,0.34852 0.595313,0.33066 0.62267,-0.1281 5.078392,2.16086 6.470435,3.32395 l 1.28558,1.07414 h -0.513878 c -0.282633,0 -0.572735,-0.0589 -0.644671,-0.13079 z m -18.845337,-0.85666 c -0.03542,-0.0338 -1.723479,-0.12516 -3.75125,-0.20308 -2.027771,-0.0779 -4.877482,-0.19589 -6.33269,-0.26217 -1.455208,-0.0663 -4.253177,-0.1886 -6.217708,-0.27184 -3.569545,-0.15125 -5.261813,-0.22062 -12.962605,-0.53142 -2.254485,-0.091 -4.114853,-0.18617 -4.134151,-0.21151 -0.0193,-0.0253 -0.09237,-6.77547 -0.162382,-15.00028 l -0.127294,-14.9542 1.880195,-0.48941 c 1.034107,-0.26917 2.148086,-0.54858 2.475507,-0.62091 l 0.595313,-0.1315 v 2.76796 2.76796 l 0.523181,0.47347 0.523181,0.47348 0.998173,-0.18485 c 1.435718,-0.26588 1.977883,-0.34359 2.663154,-0.38173 0.333656,-0.0186 1.179441,-0.56955 1.879522,-1.2244 l 1.272875,-1.19062 h 1.631494 1.631494 l 2.309817,-1.16594 c 1.31447,-0.66352 3.107918,-1.86841 4.161901,-2.79608 3.630276,-3.19524 7.42606,-5.34647 10.538323,-5.97252 0.266287,-0.0536 0.716649,-0.17118 1.000805,-0.26136 l 0.516648,-0.16398 -0.536795,0.88046 -0.536795,0.88046 -9.89e-4,1.901 c -5.44e-4,1.04556 0.10381,2.17665 0.231897,2.51355 0.128087,0.33689 0.241282,0.67206 0.251543,0.74483 0.199169,1.41225 3.301123,7.80647 5.157065,10.63052 l 1.161246,1.76699 -2.144599,0.66223 c -2.730316,0.84309 -3.404577,1.04724 -3.732099,1.12998 -0.397957,0.10053 -1.380613,0.34408 -2.050521,0.50821 -0.327422,0.0802 -0.892969,0.20053 -1.256771,0.26734 -0.363802,0.0668 -0.959115,0.19865 -1.322917,0.29297 -0.678776,0.17598 -0.986457,0.24151 -1.464308,0.31187 -0.150525,0.0222 -0.482699,0.39414 -0.738163,0.8266 l -0.46448,0.78631 0.592964,1.39651 0.592964,1.39651 3.020438,3.175 3.020438,3.175 1.717733,2.64583 c 0.944753,1.45521 1.954875,2.90443 2.244716,3.2205 l 0.526982,0.57467 -2.559329,-0.0455 c -1.407632,-0.025 -2.588307,-0.0731 -2.623723,-0.10691 z m -31.992004,-41.85583 0.102152,-8.08901 0.346393,-0.2384 c 0.367452,-0.25288 143.400413,-68.351083 143.477903,-68.310034 0.025,0.01325 0.11319,0.678313 0.19597,1.477924 0.0828,0.799611 0.20326,1.870557 0.26775,2.37988 0.0645,0.509323 0.19278,1.580885 0.2851,2.38125 0.0923,0.800364 0.2112,1.812396 0.26419,2.248958 0.21176,1.744662 0.42631,3.480347 0.52329,4.233334 0.15985,1.241236 0.41124,3.336931 0.53955,4.497916 0.0643,0.582084 0.17084,1.475053 0.23669,1.984375 0.0659,0.509323 0.19279,1.521355 0.28209,2.248959 0.0893,0.727604 0.20836,1.680104 0.26459,2.116667 0.0562,0.436562 0.17169,1.389062 0.25659,2.116666 0.31059,2.66169 0.43711,3.721048 0.53716,4.497917 0.0562,0.436563 0.17528,1.389063 0.26458,2.116667 0.0893,0.727604 0.20836,1.680104 0.26458,2.116666 0.15089,1.171625 0.39411,3.273085 0.53837,4.651575 l 0.12683,1.21199 -3.37244,0.98392 c -1.85484,0.54116 -3.55104,1.05705 -3.76932,1.14641 -0.48687,0.19933 -0.45447,0.19009 -1.5875,0.45268 -0.50932,0.11804 -1.0451,0.28808 -1.19062,0.37788 -0.14552,0.0898 -0.32412,0.17182 -0.39688,0.18226 -0.57489,0.0825 -2.03518,0.47957 -2.24896,0.61149 -0.14552,0.0898 -0.32411,0.17182 -0.39687,0.18226 -0.79433,0.11402 -2.05213,0.50168 -2.3151,0.71353 -0.18191,0.14653 -0.33073,0.20196 -0.33073,0.12317 0,-0.12626 -3.71642,0.90625 -4.7625,1.32314 -0.21828,0.087 -0.53121,0.18705 -0.69539,0.22235 -0.6193,0.13317 -3.42191,0.94544 -3.80253,1.10207 -0.48615,0.20006 -0.45295,0.19058 -1.5875,0.45351 -0.50932,0.11804 -1.0451,0.28809 -1.19063,0.37789 -0.14552,0.0898 -0.32411,0.17182 -0.39687,0.18226 -0.57489,0.0825 -2.03518,0.47957 -2.24896,0.61149 -0.14552,0.0898 -0.32411,0.17182 -0.39687,0.18226 -0.56308,0.0808 -2.03473,0.47861 -2.24896,0.60789 -0.14552,0.0878 -0.44318,0.18789 -0.66146,0.22239 -0.21828,0.0345 -1.76609,0.48938 -3.43958,1.01085 -1.67349,0.52146 -3.22131,0.99359 -3.43959,1.04916 -0.21828,0.0556 -0.39687,0.119 -0.39687,0.14095 0,0.022 -0.29766,0.0927 -0.66146,0.15727 -0.64065,0.11366 -2.89637,0.78217 -3.70417,1.09777 -0.49481,0.19331 -0.47019,0.18642 -1.5875,0.44468 -0.50932,0.11773 -1.0451,0.30924 -1.19062,0.42558 -0.14552,0.11635 -0.35586,0.21264 -0.46743,0.21398 -0.40408,0.005 -1.92018,0.37321 -2.17841,0.52925 -0.82669,0.49956 -0.76521,0.58554 -2.52859,-3.53627 l -1.02168,-2.38812 0.33956,-0.98773 c 0.18677,-0.54325 0.41525,-0.91206 0.50774,-0.81956 0.0925,0.0925 0.53291,0.21064 0.97869,0.26254 l 0.81051,0.0944 0.90669,-1.41737 c 0.49867,-0.77956 1.0951,-1.48968 1.3254,-1.57805 l 0.41873,-0.16068 -0.0269,-0.86489 c -0.0148,-0.47569 0.0286,-1.04349 0.0965,-1.26177 0.0678,-0.21828 0.20898,-0.66476 0.31367,-0.99219 l 0.19034,-0.59531 h 0.89518 0.89519 v -0.50413 c 0,-0.27728 -0.42399,-1.01161 -0.94219,-1.63186 -0.5182,-0.62024 -1.1058,-1.44413 -1.30578,-1.83085 -0.52602,-1.01719 -2.29686,-2.53486 -3.37158,-2.889556 l -0.92621,-0.305677 -1.51131,0.565452 c -3.50989,1.313221 -5.03021,4.609581 -3.49399,7.575671 0.53477,1.03252 0.5434,1.16124 0.0656,0.97788 -1.20422,-0.4621 -17.61867,14.10436 -17.61867,15.63511 0,0.15826 0.21379,0.70708 0.47509,1.21961 l 0.47509,0.93186 -0.45986,1.04231 c -0.25293,0.57327 -0.58578,1.05719 -0.73968,1.07538 -0.15389,0.0182 -0.30957,0.0568 -0.34595,0.0858 -0.0364,0.029 -0.3638,0.1048 -0.72761,0.16844 -0.3638,0.0636 -0.84005,0.19334 -1.05833,0.28822 -0.47929,0.20833 -0.43802,0.1963 -1.5875,0.4627 -0.50932,0.11803 -1.0451,0.28808 -1.19062,0.37788 -0.14553,0.0898 -0.32412,0.17182 -0.39688,0.18226 -0.79433,0.11402 -2.052125,0.50167 -2.315103,0.71352 -0.181901,0.14654 -0.330729,0.20154 -0.330729,0.12223 0,-0.0793 -0.922735,0.14887 -2.050521,0.50707 -1.127787,0.3582 -2.276322,0.70269 -2.5523,0.76554 -0.592997,0.13503 -2.241525,0.6351 -2.805513,0.85102 -0.218281,0.0836 -0.635,0.19497 -0.926041,0.24756 -0.291042,0.0526 -0.707761,0.17176 -0.926042,0.2648 -1.054375,0.44945 -2.608091,0.62895 -2.797084,0.32316 -0.09133,-0.14778 -1.703564,-0.24029 -3.816534,-0.219 l -3.658406,0.0369 -2.338467,0.78311 c -2.804554,0.93919 -5.132897,2.17228 -7.630134,4.04092 -1.667987,1.24813 -2.944446,2.07454 -3.307292,2.14122 -0.795519,0.1462 -2.038992,0.48725 -2.248958,0.61682 -0.145521,0.0898 -0.324115,0.17213 -0.396875,0.18295 -1.155821,0.17199 -2.571341,0.48155 -2.778125,0.60755 -0.145521,0.0887 -0.559272,0.20166 -0.919447,0.25109 -0.360176,0.0494 -0.80666,0.21585 -0.992188,0.36983 -0.185528,0.15397 -0.337323,0.2084 -0.337323,0.12095 0,-0.13048 -2.651149,0.71177 -4.233334,1.3449 -0.490298,0.1962 -0.461427,0.18803 -1.5875,0.44901 -0.509323,0.11803 -1.028585,0.27535 -1.153916,0.3496 -0.125331,0.0742 -0.661112,0.17254 -1.190625,0.21845 -0.529513,0.0459 -1.558063,0.15487 -2.285667,0.24215 -0.727604,0.0873 -1.79201,0.21124 -2.365346,0.27548 l -1.04243,0.1168 -2.000279,-1.07394 c -1.100153,-0.59066 -2.363134,-1.42225 -2.806624,-1.84796 -1.507523,-1.44711 -2.501485,-1.04216 -2.645697,1.07788 -0.04789,0.70397 -0.327462,1.75116 -0.62128,2.32709 -0.293817,0.57593 -0.456494,1.12486 -0.361502,1.21985 0.09499,0.095 0.196256,0.33314 0.225034,0.52922 0.02878,0.19607 0.122998,0.57958 0.209378,0.85223 l 0.157055,0.49574 -1.410512,0.4161 -1.410513,0.4161 z m 125.058568,-0.48975 c 3.4021,-4.03318 5.31307,-5.00618 7.16532,-3.64834 1.07204,0.78588 3.17329,1.64718 5.13493,2.1048 0.87513,0.20415 1.84616,0.54981 2.15785,0.76813 l 0.56672,0.39694 -0.29913,0.18487 c -0.7327,0.45283 -5.13672,0.8478 -11.8152,1.05963 l -3.74109,0.11866 z m -59.626546,-6.48091 c -1.527968,-0.11252 -3.313906,-0.14493 -3.96875,-0.072 l -1.190625,0.13255 0.474583,-0.27833 c 0.26102,-0.15307 0.796802,-0.33247 1.190625,-0.39864 0.393823,-0.0662 0.894636,-0.1943 1.112917,-0.28472 0.218282,-0.0904 0.635,-0.20742 0.926042,-0.26001 0.291042,-0.0526 0.70776,-0.17166 0.926042,-0.26459 0.218281,-0.0929 0.635,-0.21199 0.926041,-0.26458 0.291042,-0.0526 0.707761,-0.17165 0.926041,-0.26458 0.21828,-0.0929 0.62076,-0.21223 0.8944,-0.26511 0.27364,-0.0529 1.51865,-0.39218 2.76669,-0.754 2.70097,-0.78304 2.83229,-0.79197 2.86708,-0.19483 0.0545,0.9355 0.39455,3.09756 0.51881,3.29861 0.0704,0.11391 -0.38504,0.20228 -1.01209,0.19636 l -1.1401,-0.0108 -0.8838,-0.75608 c -1.09674,-0.93824 -1.93272,-0.86458 -2.37589,0.20935 l -0.17989,0.43594 z m 24.321866,-1.58138 c -0.37469,-0.47294 -1.25973,-1.60754 -1.96674,-2.52134 l -1.28549,-1.66145 1.24145,-1.26039 1.24144,-1.2604 1.69477,-0.45159 c 0.93212,-0.24838 1.80963,-0.4516 1.95001,-0.4516 0.14039,0 0.92102,0.86321 1.73473,1.91823 0.81372,1.05503 2.01717,2.52347 2.67432,3.2632 0.65716,0.73973 1.04761,1.35525 0.86768,1.36781 -0.17994,0.0126 -0.59505,0.0919 -0.92247,0.17639 -0.32743,0.0845 -0.83344,0.21307 -1.12448,0.28583 -0.29105,0.0728 -0.7673,0.19183 -1.05834,0.26459 -1.20271,0.30068 -1.75021,0.43034 -2.30819,0.54665 -0.32362,0.0675 -0.89692,0.23995 -1.274,0.38331 -0.37707,0.14336 -0.7076,0.26066 -0.73451,0.26065 -0.0269,0 -0.35549,-0.38695 -0.73018,-0.85989 z"
       id="path1" /></g></svg>
